<svg width="18" height="21" viewBox="0 0 18 21" fill="none" xmlns="http://www.w3.org/2000/svg">
<path fill-rule="evenodd" clip-rule="evenodd" d="M15.1968 3.36734C14.2652 2.41579 12.9452 2.1932 12.1114 2.90787C10.5566 4.24053 5.92617 8.94561 2.72007 12.2383C1.23514 13.7633 1.25741 16.1967 2.76692 17.7062C4.28434 19.2236 6.74041 19.237 8.27425 17.7362L16.0637 10.1145C16.3597 9.82484 16.8346 9.83001 17.1243 10.1261C17.4139 10.4221 17.4088 10.897 17.1127 11.1867L9.3233 18.8083C7.20188 20.884 3.80496 20.8655 1.70626 18.7668C-0.379123 16.6815 -0.416383 13.3093 1.64538 11.1918C4.82194 7.9295 9.5148 3.15792 11.1352 1.769C12.8014 0.340767 15.0283 1.05098 16.2686 2.31801C16.912 2.97516 17.382 3.85283 17.4432 4.83C17.5057 5.82853 17.1352 6.84668 16.2475 7.73448C14.1305 9.85151 10.6965 13.3663 8.86364 15.2466C7.88571 16.2498 6.27962 16.2568 5.29068 15.2678C4.31428 14.2914 4.30987 12.7097 5.2808 11.7279L11.4667 5.47254C11.758 5.17802 12.2329 5.17537 12.5274 5.46662C12.8219 5.75788 12.8246 6.23274 12.5333 6.52727L6.34736 12.7826C5.95664 13.1777 5.95842 13.8142 6.35134 14.2072C6.75092 14.6067 7.39678 14.6024 7.78952 14.1995C9.62132 12.3203 13.0619 8.79875 15.1868 6.67383C15.799 6.06159 15.9793 5.45364 15.9461 4.92376C15.9116 4.37252 15.6394 3.81946 15.1968 3.36734Z" fill="#9098A7"/>
</svg>
