<svg width="22" height="20" viewBox="0 0 22 20" fill="none" xmlns="http://www.w3.org/2000/svg">
<path fill-rule="evenodd" clip-rule="evenodd" d="M7.76256 16.8232L10.1161 19.1767C10.6043 19.6649 11.3957 19.6649 11.8839 19.1767L14.2374 16.8232C14.2843 16.7763 14.3479 16.7499 14.4142 16.7499H19C20.5188 16.7499 21.75 15.5187 21.75 13.9999V2.99994C21.75 1.48116 20.5188 0.249939 19 0.249939H3C1.48122 0.249939 0.25 1.48116 0.25 2.99994V13.9999C0.25 15.5187 1.48122 16.7499 3 16.7499H7.58579C7.65209 16.7499 7.71568 16.7763 7.76256 16.8232ZM13.1768 15.7625L11 17.9393L8.82322 15.7625C8.49504 15.4343 8.04992 15.2499 7.58579 15.2499H3C2.30964 15.2499 1.75 14.6903 1.75 13.9999V2.99994C1.75 2.30958 2.30964 1.74994 3 1.74994H19C19.6904 1.74994 20.25 2.30958 20.25 2.99994V13.9999C20.25 14.6903 19.6904 15.2499 19 15.2499H14.4142C13.9501 15.2499 13.505 15.4343 13.1768 15.7625ZM17 4.24998C17.4142 4.24998 17.75 4.58577 17.75 4.99998C17.75 5.4142 17.4142 5.74998 17 5.74998H5C4.58579 5.74998 4.25 5.4142 4.25 4.99998C4.25 4.58577 4.58579 4.24998 5 4.24998H17ZM17 8.01922C17.4142 8.01922 17.75 8.355 17.75 8.76922C17.75 9.18343 17.4142 9.51922 17 9.51922H5C4.58579 9.51922 4.25 9.18343 4.25 8.76922C4.25 8.355 4.58579 8.01922 5 8.01922H17ZM12.2222 11.25C12.6364 11.25 12.9722 11.5858 12.9722 12C12.9722 12.4142 12.6364 12.75 12.2222 12.75H5C4.58579 12.75 4.25 12.4142 4.25 12C4.25 11.5858 4.58579 11.25 5 11.25H12.2222Z" fill="#29374E"/>
</svg>
