<svg width="23" height="20" viewBox="0 0 23 20" fill="none" xmlns="http://www.w3.org/2000/svg">
<path fill-rule="evenodd" clip-rule="evenodd" d="M4.58333 3C4.58333 1.48122 5.81455 0.25 7.33333 0.25H20C21.5188 0.25 22.75 1.48122 22.75 3V15C22.75 17.6234 20.6234 19.75 18 19.75H3.5C3.49033 19.75 3.48071 19.7498 3.47114 19.7495C3.45302 19.7498 3.43487 19.75 3.41667 19.75C1.94391 19.75 0.75 18.5561 0.75 17.0833V9C0.75 7.48122 1.98122 6.25 3.5 6.25H4.58333V3ZM4.58333 7.75H3.5C2.80964 7.75 2.25 8.30964 2.25 9V17.0833C2.25 17.7277 2.77233 18.25 3.41667 18.25C4.061 18.25 4.58333 17.7277 4.58333 17.0833V7.75ZM5.81526 18.25H18C19.7949 18.25 21.25 16.7949 21.25 15V3C21.25 2.30964 20.6904 1.75 20 1.75H7.33333C6.64298 1.75 6.08333 2.30964 6.08333 3V17.0833C6.08333 17.5017 5.98698 17.8976 5.81526 18.25ZM8.75 5.5C8.75 5.08579 9.08579 4.75 9.5 4.75H18C18.4142 4.75 18.75 5.08579 18.75 5.5C18.75 5.91421 18.4142 6.25 18 6.25H9.5C9.08579 6.25 8.75 5.91421 8.75 5.5ZM8.75 9.5C8.75 9.08579 9.08579 8.75 9.5 8.75H18C18.4142 8.75 18.75 9.08579 18.75 9.5C18.75 9.91421 18.4142 10.25 18 10.25H9.5C9.08579 10.25 8.75 9.91421 8.75 9.5ZM8.75 13.5C8.75 13.0858 9.08579 12.75 9.5 12.75H15C15.4142 12.75 15.75 13.0858 15.75 13.5C15.75 13.9142 15.4142 14.25 15 14.25H9.5C9.08579 14.25 8.75 13.9142 8.75 13.5Z" fill="white"/>
</svg>
