<svg width="20" height="20" viewBox="0 0 20 20" fill="none" xmlns="http://www.w3.org/2000/svg">
<path fill-rule="evenodd" clip-rule="evenodd" d="M1.75 4C1.75 2.75736 2.75736 1.75 4 1.75H11C11.4142 1.75 11.75 1.41421 11.75 1C11.75 0.585786 11.4142 0.25 11 0.25H4C1.92893 0.25 0.25 1.92893 0.25 4V16C0.25 18.0711 1.92893 19.75 4 19.75H11C11.4142 19.75 11.75 19.4142 11.75 19C11.75 18.5858 11.4142 18.25 11 18.25H4C2.75736 18.25 1.75 17.2426 1.75 16V4ZM13.4697 14.4697C13.1768 14.7626 13.1768 15.2374 13.4697 15.5303C13.7626 15.8232 14.2374 15.8232 14.5303 15.5303L19.5303 10.5303C19.8232 10.2374 19.8232 9.76256 19.5303 9.46967L14.5303 4.46967C14.2374 4.17678 13.7626 4.17678 13.4697 4.46967C13.1768 4.76256 13.1768 5.23744 13.4697 5.53033L17.1893 9.25H7C6.58579 9.25 6.25 9.58579 6.25 10C6.25 10.4142 6.58579 10.75 7 10.75H17.1893L13.4697 14.4697Z" fill="#42577D"/>
</svg>
