<svg width="20" height="20" viewBox="0 0 20 20" fill="none" xmlns="http://www.w3.org/2000/svg">
<path fill-rule="evenodd" clip-rule="evenodd" d="M10.0906 1.97125C5.77811 1.97125 2.28218 5.46718 2.28218 9.77962C2.28218 11.4843 2.82758 13.0594 3.75353 14.3428C3.91027 14.5601 3.93923 14.8444 3.8295 15.0888L2.6096 17.8059L6.99114 17.0673C7.12056 17.0455 7.25345 17.058 7.37651 17.1036C8.22086 17.4166 9.13485 17.588 10.0906 17.588C14.403 17.588 17.8989 14.0921 17.8989 9.77962C17.8989 5.46718 14.403 1.97125 10.0906 1.97125ZM0.782185 9.77962C0.782185 4.63875 4.94969 0.471249 10.0906 0.471249C15.2314 0.471249 19.3989 4.63875 19.3989 9.77962C19.3989 14.9205 15.2314 19.088 10.0906 19.088C9.02607 19.088 8.0019 18.909 7.04741 18.579L1.47539 19.5183C1.20251 19.5643 0.926469 19.4563 0.757258 19.2373C0.588048 19.0184 0.553165 18.724 0.66651 18.4716L2.28867 14.8585C1.33599 13.3977 0.782185 11.6524 0.782185 9.77962Z" fill="#42577D"/>
</svg>
