<svg width="22" height="20" viewBox="0 0 22 20" fill="none" xmlns="http://www.w3.org/2000/svg">
<path fill-rule="evenodd" clip-rule="evenodd" d="M11 4.25C8.37665 4.25 6.25 6.37665 6.25 9C6.25 10.3056 6.77675 11.4882 7.62933 12.3468L4.77016 13.7764C3.83851 14.2422 3.25 15.1944 3.25 16.2361V17C3.25 18.5188 4.48122 19.75 6 19.75H16C17.5188 19.75 18.75 18.5188 18.75 17V16.2361C18.75 15.1944 18.1615 14.2422 17.2298 13.7764L14.3707 12.3468C15.2232 11.4882 15.75 10.3056 15.75 9C15.75 6.37665 13.6234 4.25 11 4.25ZM11 5.75C9.20507 5.75 7.75 7.20508 7.75 9C7.75 10.7949 9.20507 12.25 11 12.25C12.7949 12.25 14.25 10.7949 14.25 9C14.25 7.20508 12.7949 5.75 11 5.75ZM11 13.75C11.7027 13.75 12.3698 13.5974 12.97 13.3235L16.559 15.118C16.9825 15.3298 17.25 15.7626 17.25 16.2361V17C17.25 17.6904 16.6904 18.25 16 18.25H6C5.30964 18.25 4.75 17.6904 4.75 17V16.2361C4.75 15.7626 5.0175 15.3298 5.44098 15.118L9.03003 13.3235C9.63015 13.5974 10.2973 13.75 11 13.75Z" fill="#42577D"/>
<path d="M5.34391 2.39952C6.65922 1.64013 8.34109 2.09078 9.10048 3.40609C9.30759 3.76481 9.76628 3.88771 10.125 3.68061C10.4837 3.4735 10.6066 3.01481 10.3995 2.65609C9.22591 0.623344 6.62665 -0.0731251 4.59391 1.10048C2.56117 2.27409 1.8647 4.87334 3.0383 6.90609C3.20649 7.19739 3.40426 7.46153 3.62566 7.69674L1.36233 8.94399C0.676165 9.32211 0.25 10.0435 0.25 10.827V11.6C0.25 12.7874 1.21267 13.75 2.40005 13.75L3.5 13.75C3.91421 13.75 4.25 13.4142 4.25 13C4.25 12.5858 3.91421 12.25 3.5 12.25H2.40005C2.04103 12.25 1.75 11.959 1.75 11.6L1.75 10.827C1.75 10.5901 1.87884 10.372 2.08629 10.2577L5.33089 8.46971C5.56803 8.33904 5.71632 8.09069 5.71888 7.81994C5.72144 7.54919 5.57787 7.29808 5.34324 7.16294C4.93893 6.93007 4.58851 6.59112 4.33734 6.15609C3.57795 4.84078 4.02861 3.15891 5.34391 2.39952Z" fill="#42577D"/>
<path d="M12.8995 3.40609C13.6589 2.09078 15.3407 1.64013 16.656 2.39952C17.9713 3.15891 18.422 4.84078 17.6626 6.15609C17.4114 6.59112 17.061 6.93007 16.6567 7.16295C16.4221 7.29808 16.2785 7.54919 16.2811 7.81994C16.2836 8.09069 16.4319 8.33904 16.6691 8.46972L19.9137 10.2577C20.1211 10.372 20.25 10.5901 20.25 10.827V11.6C20.25 11.959 19.9589 12.25 19.5999 12.25H18.5C18.0857 12.25 17.75 12.5858 17.75 13C17.75 13.4142 18.0857 13.75 18.5 13.75L19.5999 13.75C20.7873 13.75 21.75 12.7874 21.75 11.6V10.827C21.75 10.0436 21.3238 9.32211 20.6376 8.94399L18.3743 7.69674C18.5957 7.46153 18.7935 7.19739 18.9617 6.90609C20.1353 4.87335 19.4388 2.27409 17.406 1.10048C15.3733 -0.073124 12.774 0.623345 11.6004 2.65609C11.3933 3.01481 11.5162 3.4735 11.875 3.68061C12.2337 3.88771 12.6924 3.76481 12.8995 3.40609Z" fill="#42577D"/>
</svg>
