<svg width="18" height="22" viewBox="0 0 18 22" fill="none" xmlns="http://www.w3.org/2000/svg">
<path fill-rule="evenodd" clip-rule="evenodd" d="M9.00004 2.25C8.55523 2.25 8.16469 2.48233 7.94314 2.83226C8.28749 2.77812 8.64048 2.75 9.00004 2.75C9.3596 2.75 9.71259 2.77811 10.0569 2.83226C9.83539 2.48233 9.44484 2.25 9.00004 2.25ZM9.00004 0.75C7.53784 0.75 6.34218 1.89118 6.25512 3.33149C3.89517 4.38322 2.25004 6.74949 2.25004 9.5V12.5661L0.861259 15.2279C-0.0939703 17.0588 1.2343 19.25 3.29937 19.25H5.33302L5.29774 19.2632C5.84839 20.7325 7.31456 21.75 9.00004 21.75C10.6855 21.75 12.1517 20.7325 12.7023 19.2632L12.6671 19.25H14.7007C16.7658 19.25 18.0941 17.0588 17.1388 15.2279L15.75 12.5661V9.5C15.75 6.74949 14.1049 4.38322 11.745 3.33148C11.6579 1.89118 10.4622 0.75 9.00004 0.75ZM11.021 19.25H6.97906C7.4096 19.8442 8.14439 20.25 9.00004 20.25C9.85568 20.25 10.5905 19.8442 11.021 19.25ZM9.00004 4.25C6.10055 4.25 3.75004 6.6005 3.75004 9.5V12.9339L2.19114 15.9218C1.75694 16.754 2.3607 17.75 3.29937 17.75H14.7007C15.6394 17.75 16.2431 16.754 15.8089 15.9218L14.25 12.9339V9.5C14.25 6.60051 11.8995 4.25 9.00004 4.25Z" fill="#42577D"/>
</svg>
