<svg width="23" height="23" viewBox="0 0 23 23" fill="none" xmlns="http://www.w3.org/2000/svg">
<path fill-rule="evenodd" clip-rule="evenodd" d="M14.2501 5C14.2501 4.0335 15.0336 3.25 16.0001 3.25H18C18.9665 3.25 19.75 4.0335 19.75 5V7C19.75 7.9665 18.9665 8.75 18 8.75H16.0001C15.0336 8.75 14.2501 7.9665 14.2501 7V5ZM16.0001 4.75C15.862 4.75 15.7501 4.86193 15.7501 5V7C15.7501 7.13807 15.862 7.25 16.0001 7.25H18C18.1381 7.25 18.25 7.13807 18.25 7V5C18.25 4.86193 18.1381 4.75 18 4.75H16.0001Z" fill="#9098A7"/>
<path fill-rule="evenodd" clip-rule="evenodd" d="M8.00005 0.25C6.48127 0.25 5.25005 1.48122 5.25005 3V4.48206L2.93993 5.10105C1.4729 5.49414 0.602297 7.00207 0.995388 8.4691L4.10122 20.0602C4.49431 21.5272 6.00223 22.3978 7.46926 22.0048L20.0263 18.6401C20.635 18.477 21.0824 18.0123 21.2506 17.4498C22.1407 16.9946 22.75 16.0684 22.75 15V3C22.75 1.48122 21.5188 0.25 20 0.25H8.00005ZM8.00005 17.75H17.5527L7.08104 20.5559C6.4142 20.7345 5.72878 20.3388 5.5501 19.672L2.44428 8.08087C2.2656 7.41404 2.66133 6.72862 3.32816 6.54994L5.25005 6.03497V15C5.25005 16.5188 6.48127 17.75 8.00005 17.75ZM8.00005 1.75C7.30969 1.75 6.75005 2.30964 6.75005 3V10.6893L8.96972 8.46967C9.25052 8.18887 9.70152 8.17562 9.99832 8.43944L14.0957 12.0815L17.1279 10.3488C17.4075 10.1891 17.7577 10.2256 17.9983 10.4394L21.25 13.3299V3C21.25 2.30964 20.6904 1.75 20 1.75H8.00005ZM21.2129 15.3038L17.4044 11.9185L14.3722 13.6512C14.0926 13.8109 13.7424 13.7744 13.5018 13.5606L9.53033 10.0304L6.75005 12.8107V15C6.75005 15.6904 7.30969 16.25 8.00005 16.25H20C20.5856 16.25 21.0772 15.8473 21.2129 15.3038Z" fill="#9098A7"/>
</svg>
