<svg width="22" height="22" viewBox="0 0 22 22" fill="none" xmlns="http://www.w3.org/2000/svg">
<path fill-rule="evenodd" clip-rule="evenodd" d="M6.25 8C6.25 5.37665 8.37665 3.25 11 3.25C13.6234 3.25 15.75 5.37665 15.75 8C15.75 9.3056 15.2232 10.4882 14.3707 11.3468L17.2298 12.7764C18.1615 13.2422 18.75 14.1944 18.75 15.2361V16C18.75 17.5188 17.5188 18.75 16 18.75H6C4.48122 18.75 3.25 17.5188 3.25 16V15.2361C3.25 14.1944 3.83851 13.2422 4.77016 12.7764L7.62932 11.3468C6.77675 10.4882 6.25 9.3056 6.25 8ZM7.75 8C7.75 6.20507 9.20507 4.75 11 4.75C12.7949 4.75 14.25 6.20507 14.25 8C14.25 9.79493 12.7949 11.25 11 11.25C9.20507 11.25 7.75 9.79493 7.75 8ZM12.97 12.3235C12.3699 12.5974 11.7028 12.75 11 12.75C10.2972 12.75 9.63014 12.5974 9.03001 12.3235L5.44098 14.118C5.0175 14.3298 4.75 14.7626 4.75 15.2361V16C4.75 16.6903 5.30964 17.25 6 17.25H16C16.6904 17.25 17.25 16.6903 17.25 16V15.2361C17.25 14.7626 16.9825 14.3298 16.559 14.118L12.97 12.3235Z" fill="#42577D"/>
<path fill-rule="evenodd" clip-rule="evenodd" d="M5 0.25C2.37665 0.25 0.25 2.37665 0.25 5V17C0.25 19.6234 2.37665 21.75 5 21.75H17C19.6234 21.75 21.75 19.6234 21.75 17V5C21.75 2.37665 19.6234 0.25 17 0.25H5ZM5 1.75C3.20507 1.75 1.75 3.20507 1.75 5V17C1.75 18.7949 3.20507 20.25 5 20.25H17C18.7949 20.25 20.25 18.7949 20.25 17V5C20.25 3.20507 18.7949 1.75 17 1.75H5Z" fill="#42577D"/>
</svg>
