<svg width="18" height="18" viewBox="0 0 18 18" fill="none" xmlns="http://www.w3.org/2000/svg">
<path fill-rule="evenodd" clip-rule="evenodd" d="M1.75 7.5C1.75 4.32436 4.32436 1.75 7.5 1.75C10.6756 1.75 13.25 4.32436 13.25 7.5C13.25 9.13077 12.5721 10.6019 11.4807 11.6493C10.4469 12.6414 9.04528 13.25 7.5 13.25C4.32436 13.25 1.75 10.6756 1.75 7.5ZM7.5 0.25C3.49594 0.25 0.25 3.49594 0.25 7.5C0.25 11.5041 3.49594 14.75 7.5 14.75C9.23149 14.75 10.8223 14.1422 12.0688 13.1295L16.4697 17.5303C16.7626 17.8232 17.2374 17.8232 17.5303 17.5303C17.8232 17.2374 17.8232 16.7626 17.5303 16.4697L13.1295 12.0688C14.1422 10.8223 14.75 9.23167 14.75 7.5C14.75 3.49594 11.5041 0.25 7.5 0.25Z" fill="#9098A7"/>
</svg>
