<svg width="20" height="20" viewBox="0 0 20 20" fill="none" xmlns="http://www.w3.org/2000/svg">
<path fill-rule="evenodd" clip-rule="evenodd" d="M8.53398 1.72374C8.54962 1.59863 8.65597 1.50475 8.78205 1.50475H11.2189C11.345 1.50475 11.4513 1.59863 11.4669 1.72374L11.6908 3.5144C11.7255 3.79219 11.912 4.02751 12.1746 4.12472C12.8437 4.37247 13.4595 4.73159 13.9993 5.18C14.2148 5.35899 14.512 5.40299 14.7701 5.29411L16.4344 4.59192C16.5506 4.54291 16.6851 4.58807 16.7481 4.69726L17.9665 6.80762C18.0296 6.91681 18.0014 7.05585 17.9009 7.13195L16.4614 8.22161C16.2385 8.39039 16.1279 8.66921 16.1746 8.94493C16.2327 9.28746 16.263 9.6399 16.263 10C16.263 10.3601 16.2327 10.7126 16.1746 11.0552C16.1279 11.3309 16.2384 11.6097 16.4614 11.7785L17.9009 12.8682C18.0015 12.9443 18.0296 13.0833 17.9666 13.1925L16.7482 15.3029C16.6851 15.4121 16.5506 15.4572 16.4345 15.4082L14.77 14.706C14.5119 14.5971 14.2147 14.6411 13.9992 14.8201C13.4595 15.2685 12.8437 15.6276 12.1746 15.8753C11.912 15.9725 11.7255 16.2078 11.6908 16.4856L11.4669 18.2763C11.4513 18.4014 11.345 18.4953 11.2189 18.4953H8.78205C8.65597 18.4953 8.54962 18.4014 8.53398 18.2763L8.31017 16.4859C8.27545 16.208 8.08887 15.9727 7.82631 15.8755C7.15698 15.6278 6.54104 15.2686 6.00114 14.8201C5.78567 14.6411 5.48843 14.5971 5.23036 14.706L3.56597 15.4082C3.44981 15.4572 3.31532 15.4121 3.25228 15.3029L2.03387 13.1925C1.97083 13.0833 1.99896 12.9443 2.09949 12.8682L1.64682 12.2702L2.09949 12.8682L3.53892 11.7786C3.7619 11.6098 3.87244 11.331 3.8257 11.0552C3.76763 10.7127 3.73731 10.3602 3.73731 10C3.73731 9.63988 3.76762 9.28741 3.82569 8.94486C3.87243 8.66914 3.76188 8.39031 3.53891 8.22153L2.09953 7.13195C1.99901 7.05585 1.97087 6.91681 2.03391 6.80762L3.25233 4.69726C3.31537 4.58807 3.44985 4.54291 3.56602 4.59192L5.23027 5.29407C5.48835 5.40296 5.7856 5.35895 6.00106 5.17997C6.54098 4.73145 7.15695 4.37226 7.82631 4.12451C8.08887 4.02732 8.27545 3.79198 8.31017 3.51417L8.53398 1.72374ZM8.78205 0.00474548C7.89948 0.00474548 7.15503 0.661937 7.04556 1.53769L6.87634 2.89149C6.35388 3.12138 5.86179 3.40705 5.40757 3.74084L4.1491 3.20989C3.33594 2.86682 2.39457 3.18294 1.95329 3.94726L0.734877 6.05762C0.293594 6.82194 0.490511 7.79525 1.1942 8.32793L2.28313 9.15223C2.25283 9.43088 2.23731 9.71375 2.23731 10C2.23731 10.2863 2.25284 10.5692 2.28314 10.8479L1.19415 11.6722C0.490465 12.2049 0.293549 13.1782 0.734832 13.9425L1.95325 16.0529C2.39453 16.8172 3.3359 17.1333 4.14905 16.7903L5.40766 16.2593C5.86185 16.593 6.35391 16.8787 6.87633 17.1085L7.04556 18.4623C7.15503 19.3381 7.89948 19.9953 8.78205 19.9953H11.2189C12.1014 19.9953 12.8459 19.3381 12.9554 18.4623L13.1246 17.1082C13.6468 16.8784 14.1387 16.5929 14.5927 16.2592L15.8514 16.7903C16.6645 17.1333 17.6059 16.8172 18.0472 16.0529L19.2656 13.9425C19.7069 13.1782 19.51 12.2049 18.8063 11.6722L17.7172 10.8478C17.7475 10.5691 17.763 10.2863 17.763 10C17.763 9.71378 17.7475 9.43094 17.7172 9.15231L18.8062 8.32793C19.5099 7.79525 19.7068 6.82194 19.2656 6.05762L18.0471 3.94726C17.6059 3.18294 16.6645 2.86682 15.8513 3.20989L14.5928 3.74087C14.1388 3.40721 13.6469 3.12163 13.1246 2.89178L12.9554 1.53769C12.8459 0.661936 12.1014 0.00474548 11.2189 0.00474548H8.78205ZM7.43842 10C7.43842 8.58514 8.58541 7.43815 10.0003 7.43815C11.4152 7.43815 12.5622 8.58514 12.5622 10C12.5622 11.4149 11.4152 12.5619 10.0003 12.5619C8.58541 12.5619 7.43842 11.4149 7.43842 10ZM10.0003 5.93815C7.75698 5.93815 5.93842 7.75672 5.93842 10C5.93842 12.2433 7.75698 14.0619 10.0003 14.0619C12.2436 14.0619 14.0622 12.2433 14.0622 10C14.0622 7.75672 12.2436 5.93815 10.0003 5.93815Z" fill="#42577D"/>
</svg>
