<svg width="22" height="21" viewBox="0 0 22 21" fill="none" xmlns="http://www.w3.org/2000/svg">
<path fill-rule="evenodd" clip-rule="evenodd" d="M12.3315 2.68402V5.75C12.3315 6.16421 11.9957 6.5 11.5815 6.5C11.2627 6.5 10.9179 6.49044 10.5539 6.48034C9.16899 6.44194 7.50617 6.39582 5.9439 6.83913C4.98462 7.11134 4.1112 7.56048 3.41159 8.28695C2.71521 9.01006 2.14797 10.0524 1.86947 11.5842C1.44126 13.9392 2.21909 15.7721 3.35802 17.0712C4.05856 17.8702 4.88232 18.4517 5.62499 18.8166C5.38131 18.133 5.13147 17.2359 5.13147 16.2C5.13147 14.0999 6.23158 12.6 7.78158 12.6H11.5815C11.9957 12.6 12.3315 12.9358 12.3315 13.35V16.416L19.4029 10.0517C19.7008 9.78358 19.7008 9.31641 19.4029 9.04828L12.3315 2.68402ZM10.8315 2.06655C10.8315 1.00598 12.0876 0.446528 12.876 1.15601L20.4063 7.93333C21.3663 8.79734 21.3663 10.3027 20.4063 11.1667L12.876 17.944C12.0876 18.6535 10.8315 18.094 10.8315 17.0335V14.1H7.78158C7.43151 14.1 6.63147 14.5 6.63147 16.2C6.63147 17.0262 6.83807 17.7641 7.06135 18.378C7.13699 18.586 7.20736 18.7618 7.27494 18.9306C7.31149 19.0218 7.34722 19.1111 7.38252 19.2023C7.42887 19.322 7.47512 19.4474 7.51014 19.5662C7.54245 19.6758 7.58157 19.8321 7.58158 19.9999C7.5816 20.2174 7.48726 20.4241 7.32301 20.5666C7.15876 20.709 6.94076 20.7732 6.72552 20.7425C5.4155 20.5553 3.59761 19.6198 2.23011 18.0601C0.8357 16.4696 -0.128152 14.1858 0.393665 11.3158C0.716966 9.53772 1.40063 8.21268 2.33115 7.24644C3.25844 6.28356 4.38791 5.72144 5.53443 5.3961C7.34583 4.8821 9.32171 4.94057 10.7085 4.98161C10.75 4.98284 10.791 4.98405 10.8315 4.98524V2.06655Z" fill="#9098A7"/>
</svg>
