<svg width="22" height="21" viewBox="0 0 22 21" fill="none" xmlns="http://www.w3.org/2000/svg">
<path fill-rule="evenodd" clip-rule="evenodd" d="M12.3314 2.68402V5.75C12.3314 6.16421 11.9956 6.5 11.5814 6.5C11.2627 6.5 10.9178 6.49044 10.5538 6.48034C9.16893 6.44194 7.50611 6.39582 5.94384 6.83913C4.98456 7.11134 4.11114 7.56048 3.41153 8.28695C2.71515 9.01006 2.14791 10.0524 1.86941 11.5842C1.4412 13.9392 2.21903 15.7721 3.35796 17.0712C4.0585 17.8702 4.88226 18.4517 5.62493 18.8166C5.38125 18.133 5.13141 17.2359 5.13141 16.2C5.13141 14.0999 6.23152 12.6 7.78152 12.6H11.5814C11.9956 12.6 12.3314 12.9358 12.3314 13.35V16.416L19.4028 10.0517C19.7007 9.78358 19.7007 9.31641 19.4028 9.04828L12.3314 2.68402ZM10.8314 2.06655C10.8314 1.00598 12.0876 0.446528 12.8759 1.15601L20.4063 7.93333C21.3663 8.79734 21.3663 10.3027 20.4063 11.1667L12.8759 17.944C12.0876 18.6535 10.8314 18.094 10.8314 17.0335V14.1H7.78152C7.43145 14.1 6.63141 14.5 6.63141 16.2C6.63141 17.0262 6.83801 17.7641 7.06129 18.378C7.13693 18.586 7.2073 18.7618 7.27488 18.9306C7.31143 19.0218 7.34716 19.1111 7.38246 19.2023C7.42881 19.322 7.47506 19.4474 7.51008 19.5662C7.54239 19.6758 7.58151 19.8321 7.58152 19.9999C7.58154 20.2174 7.4872 20.4241 7.32295 20.5666C7.1587 20.709 6.9407 20.7732 6.72546 20.7425C5.41544 20.5553 3.59755 19.6198 2.23005 18.0601C0.835639 16.4696 -0.128213 14.1858 0.393604 11.3158C0.716905 9.53772 1.40057 8.21268 2.33109 7.24644C3.25838 6.28356 4.38785 5.72144 5.53437 5.3961C7.34577 4.8821 9.32165 4.94057 10.7084 4.98161C10.7499 4.98284 10.791 4.98405 10.8314 4.98524V2.06655Z" fill="#29374E"/>
</svg>
