<svg width="20" height="20" viewBox="0 0 20 20" fill="none" xmlns="http://www.w3.org/2000/svg">
<path fill-rule="evenodd" clip-rule="evenodd" d="M1.75 10C1.75 5.44365 5.44365 1.75 10 1.75C14.5563 1.75 18.25 5.44365 18.25 10C18.25 14.5563 14.5563 18.25 10 18.25C5.44365 18.25 1.75 14.5563 1.75 10ZM10 0.25C4.61522 0.25 0.25 4.61522 0.25 10C0.25 15.3848 4.61522 19.75 10 19.75C15.3848 19.75 19.75 15.3848 19.75 10C19.75 4.61522 15.3848 0.25 10 0.25ZM6.5 9C7.32843 9 8 8.32843 8 7.5C8 6.67157 7.32843 6 6.5 6C5.67157 6 5 6.67157 5 7.5C5 8.32843 5.67157 9 6.5 9ZM15 7.5C15 8.32843 14.3284 9 13.5 9C12.6716 9 12 8.32843 12 7.5C12 6.67157 12.6716 6 13.5 6C14.3284 6 15 6.67157 15 7.5ZM7.21147 11.7628C7.08049 11.3698 6.65575 11.1575 6.26279 11.2884C5.86983 11.4194 5.65746 11.8442 5.78845 12.2371C6.42137 14.1359 8.28673 15 9.99996 15C11.7132 15 13.5786 14.1359 14.2115 12.2371C14.3425 11.8442 14.1301 11.4194 13.7371 11.2884C13.3442 11.1575 12.9194 11.3698 12.7884 11.7628C12.4214 12.864 11.2867 13.5 9.99996 13.5C8.71319 13.5 7.57855 12.864 7.21147 11.7628Z" fill="#9098A7"/>
</svg>
