<svg width="20" height="20" viewBox="0 0 20 20" fill="none" xmlns="http://www.w3.org/2000/svg">
<path fill-rule="evenodd" clip-rule="evenodd" d="M1.75 4C1.75 2.75736 2.75736 1.75 4 1.75H13.75V5.5C13.75 5.91421 14.0858 6.25 14.5 6.25H18.25V16C18.25 17.2426 17.2426 18.25 16 18.25H4C2.75736 18.25 1.75 17.2426 1.75 16V4ZM17.1893 4.75L15.25 2.81066V4.75H17.1893ZM4 0.25C1.92893 0.25 0.25 1.92893 0.25 4V16C0.25 18.0711 1.92893 19.75 4 19.75H16C18.0711 19.75 19.75 18.0711 19.75 16V5.5C19.75 5.30109 19.671 5.11032 19.5303 4.96967L15.0303 0.46967C14.8897 0.329018 14.6989 0.25 14.5 0.25H4ZM5 7.25C4.58579 7.25 4.25 7.58579 4.25 8C4.25 8.41421 4.58579 8.75 5 8.75H15C15.4142 8.75 15.75 8.41421 15.75 8C15.75 7.58579 15.4142 7.25 15 7.25H5ZM4.25 11C4.25 10.5858 4.58579 10.25 5 10.25H15C15.4142 10.25 15.75 10.5858 15.75 11C15.75 11.4142 15.4142 11.75 15 11.75H5C4.58579 11.75 4.25 11.4142 4.25 11ZM5 13.25C4.58579 13.25 4.25 13.5858 4.25 14C4.25 14.4142 4.58579 14.75 5 14.75H12C12.4142 14.75 12.75 14.4142 12.75 14C12.75 13.5858 12.4142 13.25 12 13.25H5Z" fill="#9098A7"/>
</svg>
