<svg width="20" height="20" viewBox="0 0 20 20" fill="none" xmlns="http://www.w3.org/2000/svg">
<path fill-rule="evenodd" clip-rule="evenodd" d="M1.75 10C1.75 5.44365 5.44365 1.75 10 1.75C14.5563 1.75 18.25 5.44365 18.25 10C18.25 14.5563 14.5563 18.25 10 18.25C5.44365 18.25 1.75 14.5563 1.75 10ZM10 0.25C4.61522 0.25 0.25 4.61522 0.25 10C0.25 15.3848 4.61522 19.75 10 19.75C15.3848 19.75 19.75 15.3848 19.75 10C19.75 4.61522 15.3848 0.25 10 0.25ZM10.75 5.51672C10.75 5.10251 10.4142 4.76672 10 4.76672C9.58579 4.76672 9.25 5.10251 9.25 5.51672V10.4661C9.25 10.665 9.32902 10.8557 9.46967 10.9964L12.2425 13.7692C12.5354 14.0621 13.0103 14.0621 13.3032 13.7692C13.5961 13.4763 13.5961 13.0015 13.3032 12.7086L10.75 10.1554V5.51672Z" fill="#9098A7"/>
</svg>
