<svg width="18" height="22" viewBox="0 0 18 22" fill="none" xmlns="http://www.w3.org/2000/svg">
<path fill-rule="evenodd" clip-rule="evenodd" d="M1.75 9C1.75 6.68854 2.57296 4.89087 3.85964 3.66881C5.15229 2.44109 6.9603 1.75 9 1.75C11.0397 1.75 12.8477 2.44109 14.1404 3.66881C15.427 4.89087 16.25 6.68854 16.25 9C16.25 11.7037 14.4221 14.5212 12.4394 16.7517C11.4657 17.8472 10.4896 18.7625 9.75612 19.4043C9.45731 19.6658 9.19966 19.8811 9 20.0438C8.80034 19.8811 8.54269 19.6658 8.24388 19.4043C7.51041 18.7625 6.53432 17.8472 5.56056 16.7517C3.57785 14.5212 1.75 11.7037 1.75 9ZM9.45 21.6L9 21C9.45 21.6 9.45073 21.5995 9.45093 21.5993L9.45259 21.5981L9.45807 21.5939L9.47755 21.5791C9.49426 21.5664 9.51833 21.5479 9.54927 21.524C9.61115 21.476 9.70055 21.4059 9.81354 21.3151C10.0395 21.1336 10.3601 20.869 10.7439 20.5332C11.5104 19.8625 12.5343 18.9028 13.5606 17.7483C15.5779 15.4788 17.75 12.2963 17.75 9C17.75 6.31146 16.7821 4.10913 15.1734 2.58119C13.5706 1.05891 11.3786 0.25 9 0.25C6.62142 0.25 4.42943 1.05891 2.82665 2.58119C1.2179 4.10913 0.25 6.31146 0.25 9C0.25 12.2963 2.42215 15.4788 4.43944 17.7483C5.46568 18.9028 6.48959 19.8625 7.25612 20.5332C7.63992 20.869 7.96054 21.1336 8.18646 21.3151C8.29945 21.4059 8.38885 21.476 8.45073 21.524C8.48167 21.5479 8.50574 21.5664 8.52245 21.5791L8.54193 21.5939L8.54741 21.5981L8.55 21.6C8.81667 21.8 9.18333 21.8 9.45 21.6ZM8.55 21.6L9 21C8.55 21.6 8.5502 21.6002 8.55 21.6ZM5.75 9C5.75 7.20507 7.20507 5.75 9 5.75C10.7949 5.75 12.25 7.20507 12.25 9C12.25 10.7949 10.7949 12.25 9 12.25C7.20507 12.25 5.75 10.7949 5.75 9ZM9 4.25C6.37665 4.25 4.25 6.37665 4.25 9C4.25 11.6234 6.37665 13.75 9 13.75C11.6234 13.75 13.75 11.6234 13.75 9C13.75 6.37665 11.6234 4.25 9 4.25Z" fill="#9098A7"/>
</svg>
