<svg width="45" height="45" viewBox="0 0 45 45" fill="none" xmlns="http://www.w3.org/2000/svg">
<rect width="45" height="45" rx="8" fill="#EFC2BA"/>
<path fill-rule="evenodd" clip-rule="evenodd" d="M19.9852 15.7191C20.2224 15.4226 20.5815 15.25 20.9613 15.25H24.0388C24.4185 15.25 24.7776 15.4226 25.0148 15.7191L25.8139 16.7179C26.3357 17.3703 27.1258 17.75 27.9612 17.75H29.5C30.1904 17.75 30.75 18.3096 30.75 19V28.5C30.75 29.1904 30.1904 29.75 29.5 29.75H15.5C14.8096 29.75 14.25 29.1904 14.25 28.5V19C14.25 18.3096 14.8096 17.75 15.5 17.75H17.0388C17.8742 17.75 18.6643 17.3703 19.1861 16.7179L19.9852 15.7191ZM20.9613 13.75C20.1258 13.75 19.3357 14.1297 18.8139 14.7821L18.0148 15.7809C17.7776 16.0774 17.4185 16.25 17.0388 16.25H15.5C13.9812 16.25 12.75 17.4812 12.75 19V28.5C12.75 30.0188 13.9812 31.25 15.5 31.25H29.5C31.0188 31.25 32.25 30.0188 32.25 28.5V19C32.25 17.4812 31.0188 16.25 29.5 16.25H27.9612C27.5815 16.25 27.2224 16.0774 26.9852 15.7809L26.1861 14.7821C25.6643 14.1297 24.8742 13.75 24.0388 13.75H20.9613ZM27.5 20.5C28.0523 20.5 28.5 20.0523 28.5 19.5C28.5 18.9477 28.0523 18.5 27.5 18.5C26.9477 18.5 26.5 18.9477 26.5 19.5C26.5 20.0523 26.9477 20.5 27.5 20.5Z" fill="#E04A2F"/>
<path fill-rule="evenodd" clip-rule="evenodd" d="M27 23.5C27 25.9853 24.9853 28 22.5 28C20.0147 28 18 25.9853 18 23.5C18 21.0147 20.0147 19 22.5 19C24.9853 19 27 21.0147 27 23.5ZM22.5 26.5C24.1569 26.5 25.5 25.1569 25.5 23.5C25.5 21.8431 24.1569 20.5 22.5 20.5C20.8431 20.5 19.5 21.8431 19.5 23.5C19.5 25.1569 20.8431 26.5 22.5 26.5Z" fill="#E04A2F"/>
</svg>
