<svg width="45" height="45" viewBox="0 0 45 45" fill="none" xmlns="http://www.w3.org/2000/svg">
<rect width="45" height="45" rx="8" fill="#CFE2F4"/>
<path fill-rule="evenodd" clip-rule="evenodd" d="M16.5 12.75C14.9812 12.75 13.75 13.9812 13.75 15.5V17H13.25C12.8358 17 12.5 17.3358 12.5 17.75C12.5 18.1642 12.8358 18.5 13.25 18.5H13.75V26H13.25C12.8358 26 12.5 26.3358 12.5 26.75C12.5 27.1642 12.8358 27.5 13.25 27.5H13.75V29.5C13.75 31.0188 14.9812 32.25 16.5 32.25H28.5C30.0188 32.25 31.25 31.0188 31.25 29.5V15.5C31.25 13.9812 30.0188 12.75 28.5 12.75H16.5ZM15.25 27.5V29.5C15.25 30.1904 15.8096 30.75 16.5 30.75H28.5C29.1904 30.75 29.75 30.1904 29.75 29.5V15.5C29.75 14.8096 29.1904 14.25 28.5 14.25H16.5C15.8096 14.25 15.25 14.8096 15.25 15.5V17H15.75C16.1642 17 16.5 17.3358 16.5 17.75C16.5 18.1642 16.1642 18.5 15.75 18.5H15.25V26H15.75C16.1642 26 16.5 26.3358 16.5 26.75C16.5 27.1642 16.1642 27.5 15.75 27.5H15.25ZM19.5 15.75C18.5335 15.75 17.75 16.5335 17.75 17.5V19.5C17.75 20.4665 18.5335 21.25 19.5 21.25H25.5C26.4665 21.25 27.25 20.4665 27.25 19.5V17.5C27.25 16.5335 26.4665 15.75 25.5 15.75H19.5ZM19.25 17.5C19.25 17.3619 19.3619 17.25 19.5 17.25H25.5C25.6381 17.25 25.75 17.3619 25.75 17.5V19.5C25.75 19.6381 25.6381 19.75 25.5 19.75H19.5C19.3619 19.75 19.25 19.6381 19.25 19.5V17.5Z" fill="#637DAC"/>
</svg>
