<svg width="21" height="21" viewBox="0 0 21 21" fill="none" xmlns="http://www.w3.org/2000/svg">
<path fill-rule="evenodd" clip-rule="evenodd" d="M9.75 2.00004C9.75 1.8489 9.94812 1.51749 10.505 1.56032C10.9191 1.59218 11.5574 1.90672 11.7602 3.12334C12.0092 4.61741 11.9978 5.8469 11.9317 6.67405C11.8497 7.69905 12.6345 8.75001 13.7808 8.75001H17.6391C18.4115 8.75001 18.9991 9.4436 18.8721 10.2055L17.5387 18.2055C17.4383 18.8082 16.9168 19.25 16.3057 19.25H8C7.30964 19.25 6.75 18.6904 6.75 18V10.5704C6.75 10.1718 6.96427 9.74623 7.35582 9.36078C8.71494 8.02284 9.75 5.80082 9.75 2.00004ZM6.49586 8.09128C7.41871 7.07235 8.25 5.29295 8.25 2.00004C8.25 0.651184 9.55188 -0.0174211 10.62 0.0647383C11.8309 0.157876 12.9426 1.09333 13.2398 2.87674C13.5119 4.50937 13.5013 5.86342 13.4269 6.79366C13.4177 6.90816 13.4583 7.03076 13.5376 7.12384C13.6147 7.21433 13.703 7.25001 13.7808 7.25001H17.6391C19.3384 7.25001 20.631 8.7759 20.3517 10.4521L19.0183 18.4521C18.7973 19.7781 17.6501 20.75 16.3057 20.75H8C7.36062 20.75 6.7722 20.5318 6.30515 20.1658C5.98469 20.5243 5.51871 20.75 5 20.75H2C1.0335 20.75 0.25 19.9665 0.25 19V9C0.25 8.0335 1.0335 7.25 2 7.25H5C5.63373 7.25 6.18877 7.58686 6.49586 8.09128ZM5.25 10.5704V9C5.25 8.86193 5.13807 8.75 5 8.75H2C1.86193 8.75 1.75 8.86193 1.75 9V19C1.75 19.1381 1.86193 19.25 2 19.25H5C5.13807 19.25 5.25 19.1381 5.25 19V18V10.5704Z" fill="#9098A7"/>
</svg>
