<svg width="22" height="18" viewBox="0 0 22 18" fill="none" xmlns="http://www.w3.org/2000/svg">
<path fill-rule="evenodd" clip-rule="evenodd" d="M0.25 14C0.25 16.0711 1.92893 17.75 4 17.75H14C16.0711 17.75 17.75 16.0711 17.75 14V12.6307L20.0119 14.5694C20.2343 14.7601 20.5473 14.8038 20.8134 14.6814C21.0795 14.559 21.25 14.2929 21.25 14V4C21.25 3.7071 21.0795 3.441 20.8134 3.31861C20.5473 3.19623 20.2343 3.23994 20.0119 3.43056L17.75 5.36933V4C17.75 1.92893 16.0711 0.25 14 0.25H4C1.92893 0.25 0.25 1.92893 0.25 4V14ZM17.75 7.34495L19.75 5.63067V12.3693L17.75 10.655V7.34495ZM4 16.25C2.75736 16.25 1.75 15.2426 1.75 14V4C1.75 2.75736 2.75736 1.75 4 1.75H14C15.2426 1.75 16.25 2.75736 16.25 4V14C16.25 15.2426 15.2426 16.25 14 16.25H4Z" fill="#9098A7"/>
</svg>
